<svg xmlns="http://www.w3.org/2000/svg" viewBox="0 0 572.08 452.41"><defs><style>.cls-1,.cls-2,.cls-3,.cls-4,.cls-5{fill:none;stroke:#231f20;stroke-linecap:round}.cls-1,.cls-2,.cls-3,.cls-4{stroke-miterlimit:10;stroke-width:12.79px}.cls-2{stroke-dasharray:48.02 48.02}.cls-3{stroke-dasharray:36.71 36.71}.cls-4{stroke-dasharray:40.07 40.07}.cls-5{stroke-linejoin:round;stroke-width:9.59px}</style></defs><title>Asset 7</title><g id="Layer_2" data-name="Layer 2"><g id="Layer_1-2" data-name="Layer 1"><line x1="383.28" x2="402.46" y1="77.3" y2="77.3" class="cls-1"/><line x1="450.47" x2="522.5" y1="77.3" y2="77.3" class="cls-2"/><polyline points="546.51 77.3 565.68 77.3 565.68 96.47" class="cls-1"/><line x1="565.69" x2="565.69" y1="133.18" y2="408.48" class="cls-3"/><polyline points="565.68 426.83 565.68 446.01 546.51 446.01" class="cls-1"/><line x1="506.43" x2="45.61" y1="446.01" y2="446.01" class="cls-4"/><polyline points="25.57 446.01 6.39 446.01 6.39 426.83" class="cls-1"/><line x1="6.39" x2="6.39" y1="390.13" y2="114.83" class="cls-3"/><polyline points="6.39 96.47 6.39 77.3 25.57 77.3" class="cls-1"/><line x1="60.89" x2="80.06" y1="77.3" y2="77.3" class="cls-1"/><polyline points="333.92 250.26 87.18 250.26 87.18 4.79 378.22 4.79 378.22 196.66" class="cls-5"/><circle cx="166.81" cy="82.73" r="30.55" class="cls-5"/><polyline points="87.18 201.58 166.81 154.97 217.68 190.19 308.82 87.65 378.22 180.87" class="cls-5"/><polygon points="310.26 177.76 356.87 307.23 377.58 269.94 437.66 322.76 456.3 302.05 403.48 249.23 441.8 222.3 310.26 177.76" class="cls-5"/></g></g></svg>