<svg xmlns="http://www.w3.org/2000/svg" viewBox="0 0 572.08 452.41"><defs><style>.cls-1,.cls-2,.cls-3,.cls-4,.cls-5{fill:none;stroke:#231f20;stroke-linecap:round;}.cls-1,.cls-2,.cls-3,.cls-4{stroke-miterlimit:10;stroke-width:12.79px;}.cls-2{stroke-dasharray:48.02 48.02;}.cls-3{stroke-dasharray:36.71 36.71;}.cls-4{stroke-dasharray:40.07 40.07;}.cls-5{stroke-linejoin:round;stroke-width:9.59px;}</style></defs><title>Asset 7</title><g id="Layer_2" data-name="Layer 2"><g id="Layer_1-2" data-name="Layer 1"><line class="cls-1" x1="383.28" y1="77.3" x2="402.46" y2="77.3"/><line class="cls-2" x1="450.47" y1="77.3" x2="522.5" y2="77.3"/><polyline class="cls-1" points="546.51 77.3 565.68 77.3 565.68 96.47"/><line class="cls-3" x1="565.69" y1="133.18" x2="565.69" y2="408.48"/><polyline class="cls-1" points="565.68 426.83 565.68 446.01 546.51 446.01"/><line class="cls-4" x1="506.43" y1="446.01" x2="45.61" y2="446.01"/><polyline class="cls-1" points="25.57 446.01 6.39 446.01 6.39 426.83"/><line class="cls-3" x1="6.39" y1="390.13" x2="6.39" y2="114.83"/><polyline class="cls-1" points="6.39 96.47 6.39 77.3 25.57 77.3"/><line class="cls-1" x1="60.89" y1="77.3" x2="80.06" y2="77.3"/><polyline class="cls-5" points="333.92 250.26 87.18 250.26 87.18 4.79 378.22 4.79 378.22 196.66"/><circle class="cls-5" cx="166.81" cy="82.73" r="30.55"/><polyline class="cls-5" points="87.18 201.58 166.81 154.97 217.68 190.19 308.82 87.65 378.22 180.87"/><polygon class="cls-5" points="310.26 177.76 356.87 307.23 377.58 269.94 437.66 322.76 456.3 302.05 403.48 249.23 441.8 222.3 310.26 177.76"/></g></g></svg>