<svg xmlns="http://www.w3.org/2000/svg" viewBox="0 0 419.45 143.05"><g id="Layer_2" data-name="Layer 2"><g id="Layer_1-2" data-name="Layer 1"><path d="M0,123.54c5.66-.74,7.13-1.4,7.13-5.91V74.18C7.13,69.67,5.66,69,0,68.27V66.06H27.3v2.21c-5.57.74-7.13,1.4-7.13,5.91v43.45c0,4.51,1.56,5.17,7.13,5.91v2.21H0Z" style="fill:#eeefef"/><path d="M31.33,104.51c0-14.75,10-23.86,23.77-23.86,10.34,0,16.24,5,16.24,10.17,0,3.44-2.54,6.64-7.46,6.89l-1.15-3.12c-2.79-7.62-5.25-10.41-9.1-10.41-6.48,0-9.35,7.79-9.35,16.89,0,13.53,6,18.78,13.53,18.78A15.68,15.68,0,0,0,70,114l2.46,1.47c-5.41,8.2-11.81,11.24-19.35,11.24C41.66,126.74,31.33,119.6,31.33,104.51Z" style="fill:#eeefef"/><path d="M76.67,104.35c0-14.1,10.58-23.7,24.28-23.7,13,0,22.79,8.78,22.79,22.39,0,14.1-10.58,23.7-24.19,23.7C86.43,126.74,76.67,118,76.67,104.35Zm34.2.57c0-13-3.86-20.66-11.24-20.66-7.13,0-10.08,6.81-10.08,18.12,0,13,3.85,20.75,11.23,20.75C107.91,123.13,110.87,116.32,110.87,104.92Z" style="fill:#eeefef"/><path d="M184.59,123.7v2H160.81v-2c4.43-.66,5.57-1.56,5.57-5.74V97.38c0-7.21-2.78-10.5-7.87-10.5-6.72,0-11,5.75-11,14.85V118c0,4.18,1.4,5.08,5.83,5.74v2h-24v-2c5.09-.66,6.15-1.56,6.15-5.74V93.44c0-4.34-1.64-7.13-6.15-7.78v-2l16.07-2.55h1.72v9.35h.25c3-6,8.69-9.76,16.56-9.76,9.93,0,14.6,5.74,14.6,16.07V118C178.52,122.14,179.5,123,184.59,123.7Z" style="fill:#eeefef"/><path d="M188.69,104.35c0-14.1,10.58-23.7,24.28-23.7,13,0,22.79,8.78,22.79,22.39,0,14.1-10.58,23.7-24.19,23.7C198.45,126.74,188.69,118,188.69,104.35Zm34.2.57c0-13-3.86-20.66-11.24-20.66-7.13,0-10.08,6.81-10.08,18.12,0,13,3.85,20.75,11.23,20.75C219.93,123.13,222.89,116.32,222.89,104.92Z" style="fill:#eeefef"/><path d="M240.28,123.7c5.16-.66,6.15-1.56,6.15-5.74V75.9c0-4.35-1.56-7.14-6.15-7.79v-2l16.15-2.54h2.13V118c0,4.18,1.39,5.08,5.82,5.74v2h-24.1Z" style="fill:#eeefef"/><path d="M268.48,104.35c0-14.1,10.58-23.7,24.27-23.7,13,0,22.8,8.78,22.8,22.39,0,14.1-10.58,23.7-24.19,23.7C278.24,126.74,268.48,118,268.48,104.35Zm34.2.57c0-13-3.86-20.66-11.24-20.66-7.13,0-10.08,6.81-10.08,18.12,0,13,3.85,20.75,11.23,20.75C299.72,123.13,302.68,116.32,302.68,104.92Z" style="fill:#eeefef"/><path d="M359.59,86.39a12.76,12.76,0,0,1,3.19,8.7c0,9.59-8.85,15.49-20.17,15.49a28.93,28.93,0,0,1-6.15-.65l-1.88,1.14c-1.81,1-2.54,1.89-2.54,2.79,0,1.31,1.31,1.89,4.42,2l14.85.82c10,.58,15.08,4.1,15.08,10.42,0,8.93-10.16,15.9-27.14,15.9-10.08,0-16.89-2.54-16.89-8.61,0-3.28,1.89-5.65,6-5.65a14.86,14.86,0,0,1,2.87.32,8.71,8.71,0,0,0-.5,2.79c0,4.43,4.43,7.22,12.14,7.22,8.77,0,13.94-3.69,13.94-8,0-3-2.21-4.51-8-4.84l-15.33-.82c-7.95-.41-10.66-3.19-10.66-7.21,0-4.27,3-6.73,7.79-8.86l1.72-.74c-4.84-2-9.34-5.74-9.34-12.54,0-9.68,8.85-15.42,20.58-15.42a24.92,24.92,0,0,1,12.71,3A10.36,10.36,0,0,1,359.59,86.39Zm-8.45,9.35c0-7-2.95-11.56-8.36-11.56s-8.12,4.35-8.12,11.07c0,7.13,2.87,11.81,8.28,11.81S351.14,102.55,351.14,95.74Z" style="fill:#eeefef"/><path d="M417.93,81.64v2c-2.46.49-4.43,3-6.23,7.46l-15.25,36.81c-4.68,11.24-10.5,14.68-17.22,14.68-6.23,0-8.37-3.36-8.37-6.48a6.59,6.59,0,0,1,1.32-4.1l3.52,1.23c3.12,1.23,5.5,2,7.63,2,4.1,0,6-1,8.42-7l-5.16-10L375.21,91.07c-1.72-4.27-3.53-6.89-6.15-7.46v-2h23v2c-4.26.49-5.82,2.87-4.26,7.29l9.26,24.93L405.47,94c2.46-6.4-.74-9.84-4.68-10.41v-2Z" style="fill:#eeefef"/><path d="M310.4,26.28s11.44-10.43,23.8-11.38,39.47,6.47,43.8,10.45S363.23,40.6,363.23,40.6l-18.75,18L322.15,38.08Z" style="fill:#26a7df"/><path d="M313.12,35.46C328.73,48.84,341,51.9,341.06,72.74a3.49,3.49,0,0,0,2.26,3.4,3.34,3.34,0,0,0,4.38-3.24c0-22.93-13.16-28-30.33-42.67-1.36-1.17-2.79-2.25-4.26-3.29a68.85,68.85,0,0,0-6.27,3.76A68.18,68.18,0,0,1,313.12,35.46Z" style="fill:#ded067"/><path d="M295.94,30.55C279.06,45.2,269.36,50,269.3,72.71a3.52,3.52,0,0,0,3.18,3.6,3.36,3.36,0,0,0,3.46-3.41c0-20.73,8.85-23.75,24.28-37.15a68.08,68.08,0,0,1,6.62-5.05,69.53,69.53,0,0,0-6.3-3.78C299,28.08,297.41,29.27,295.94,30.55Z" style="fill:#ded067"/><path d="M300.54,26.92a69.53,69.53,0,0,1,6.3,3.78,68.85,68.85,0,0,1,6.27-3.76q-3.11-2.18-6.44-4.1Q303.49,24.79,300.54,26.92Z" style="fill:#ded067"/><path d="M375.63,35.46C360,48.84,347.74,51.9,347.7,72.74a3.5,3.5,0,0,1-2.26,3.4,3.34,3.34,0,0,1-4.38-3.24c0-22.93,13.16-28,30.32-42.67,1.36-1.17,2.8-2.25,4.27-3.29a68.85,68.85,0,0,1,6.27,3.76A67,67,0,0,0,375.63,35.46Z" style="fill:#ded067"/><path d="M392.81,30.55C409.7,45.2,419.4,50,419.45,72.71a3.51,3.51,0,0,1-3.18,3.6,3.36,3.36,0,0,1-3.45-3.41c0-20.73-8.86-23.75-24.29-37.15a68,68,0,0,0-6.61-5.05,68,68,0,0,1,6.29-3.78C389.8,28.08,391.35,29.27,392.81,30.55Z" style="fill:#ded067"/><path d="M388.21,26.92a68,68,0,0,0-6.29,3.78,68.85,68.85,0,0,0-6.27-3.76q3.09-2.18,6.44-4.1C384.2,24.14,386.25,25.5,388.21,26.92Z" style="fill:#ded067"/><path d="M344.38,19.17a67.13,67.13,0,0,1,31.27,7.77q3.09-2.18,6.44-4.1c-12-7.38-26-13.23-37.71-22.84-11.75,9.61-25.74,15.46-37.71,22.84q3.33,1.92,6.44,4.1A67.13,67.13,0,0,1,344.38,19.17Z" style="fill:#ded067"/></g></g></svg>